<svg xmlns="http://www.w3.org/2000/svg" width="640" height="760" viewBox="0 0 640 760" role="img">
	<defs>
		<filter id="paper-grain" x="-10%" y="-10%" width="120%" height="120%">
			<feTurbulence type="fractalNoise" baseFrequency="0.72" numOctaves="3" seed="17" result="noise" />
			<feColorMatrix in="noise" type="saturate" values="0" result="mono" />
			<feComponentTransfer in="mono" result="grain">
				<feFuncA type="table" tableValues="0 0.16" />
			</feComponentTransfer>
			<feBlend in="SourceGraphic" in2="grain" mode="multiply" />
		</filter>
		<pattern id="halftone" width="12" height="12" patternUnits="userSpaceOnUse">
			<circle cx="2" cy="2" r="1.1" fill="#191A1F" opacity="0.28" />
			<circle cx="8" cy="7" r="0.85" fill="#191A1F" opacity="0.18" />
		</pattern>
		<clipPath id="soft-frame">
			<rect x="28" y="28" width="584" height="704" rx="6" />
		</clipPath>
	</defs>
	<rect width="640" height="760" fill="#FBFAF6" />
	<g clip-path="url(#soft-frame)" filter="url(#paper-grain)">
		<rect x="28" y="28" width="584" height="704" fill="#F4F2EB" />
		<path d="M68 86 L424 54 L402 294 L44 318 Z" fill="#ECEADF" />
		<path d="M206 124 L574 104 L594 402 L228 420 Z" fill="#DDD8CC" opacity="0.72" />
		<path d="M84 366 L364 326 L398 674 L112 706 Z" fill="#FBFAF6" />
		<path d="M328 258 L602 286 L560 662 L286 628 Z" fill="#ECEADF" />
		<path d="M112 154 L454 122 L464 166 L116 202 Z" fill="#191A1F" opacity="0.88" />
		<path d="M138 236 L332 218 L338 254 L134 274 Z" fill="#3D3F46" opacity="0.78" />
		<path d="M390 184 L552 170 L560 214 L398 230 Z" fill="#A88A4E" opacity="0.48" />
		<path d="M92 430 L270 404 L278 452 L100 480 Z" fill="#0F4346" opacity="0.8" />
		<path d="M374 360 L548 378 L540 430 L368 410 Z" fill="#191A1F" opacity="0.84" />
		<path d="M176 520 L500 492 L506 532 L182 562 Z" fill="#3D3F46" opacity="0.7" />
		<path d="M390 568 L536 548 L544 604 L398 624 Z" fill="#DDD8CC" />
		<path d="M84 344 C184 324 272 342 366 310 C456 278 516 272 604 294 L604 378 C492 356 430 370 342 402 C250 438 170 406 84 430 Z" fill="url(#halftone)" opacity="0.45" />
		<path d="M34 608 C154 570 274 610 382 574 C472 544 538 530 610 548 L610 732 L34 732 Z" fill="url(#halftone)" opacity="0.32" />
		<g fill="none" stroke="#191A1F" stroke-opacity="0.28" stroke-width="2">
			<path d="M72 92 L424 60" />
			<path d="M230 132 L580 112" />
			<path d="M88 372 L362 332" />
			<path d="M326 264 L598 292" />
			<path d="M116 706 L398 674" />
		</g>
		<g opacity="0.3">
			<path d="M54 54 L612 54" stroke="#A88A4E" stroke-width="2" />
			<path d="M54 706 L612 706" stroke="#A88A4E" stroke-width="2" />
		</g>
	</g>
</svg>
